<svg width="28" height="28" viewBox="0 0 28 28" fill="none" xmlns="http://www.w3.org/2000/svg">
<path d="M22.9952 15.2611L21.0265 13.2924C20.9034 13.1694 20.7365 13.1002 20.5625 13.1002C20.3885 13.1002 20.2216 13.1694 20.0985 13.2924L14 19.3909V22.2876H16.8967L22.9952 16.1891C23.1182 16.066 23.1874 15.8991 23.1874 15.7251C23.1874 15.5511 23.1182 15.3842 22.9952 15.2611ZM16.3533 20.9751H15.3125V19.9343L18.5937 16.653L19.6346 17.6938L16.3533 20.9751ZM20.5625 16.7659L19.5217 15.7251L20.5625 14.6843L21.6033 15.7251L20.5625 16.7659ZM15.3125 14.4126V11.7876H16.625V14.4126H15.3125ZM12.6875 14.4126V10.4751H14V14.4126H12.6875ZM10.0625 14.4126V7.8501H11.375V14.4126H10.0625Z" fill="white"/>
<path d="M11.375 22.2876H7.4375C7.0894 22.2876 6.75556 22.1493 6.50942 21.9032C6.26328 21.657 6.125 21.3232 6.125 20.9751V5.2251C6.125 4.877 6.26328 4.54316 6.50942 4.29702C6.75556 4.05088 7.0894 3.9126 7.4375 3.9126H17.9375C18.2856 3.9126 18.6194 4.05088 18.8656 4.29702C19.1117 4.54316 19.25 4.877 19.25 5.2251V11.7876H17.9375V5.2251H7.4375V20.9751H11.375V22.2876Z" fill="white"/>
</svg>
