<svg width="28" height="28" viewBox="0 0 28 28" fill="none" xmlns="http://www.w3.org/2000/svg">
<path d="M24.5599 14H10.1457M5.0579 14H2.97656M5.0579 14C5.0579 13.3255 5.32585 12.6786 5.80282 12.2016C6.27979 11.7247 6.9267 11.4567 7.60123 11.4567C8.27576 11.4567 8.92267 11.7247 9.39964 12.2016C9.87661 12.6786 10.1446 13.3255 10.1446 14C10.1446 14.6746 9.87661 15.3215 9.39964 15.7984C8.92267 16.2754 8.27576 16.5434 7.60123 16.5434C6.9267 16.5434 6.27979 16.2754 5.80282 15.7984C5.32585 15.3215 5.0579 14.6746 5.0579 14ZM24.5599 21.7082H17.8539M17.8539 21.7082C17.8539 22.3829 17.5853 23.0305 17.1082 23.5076C16.6311 23.9847 15.9841 24.2527 15.3094 24.2527C14.6349 24.2527 13.988 23.9836 13.511 23.5066C13.034 23.0296 12.7661 22.3827 12.7661 21.7082M17.8539 21.7082C17.8539 21.0335 17.5853 20.387 17.1082 19.91C16.6311 19.4329 15.9841 19.1649 15.3094 19.1649C14.6349 19.1649 13.988 19.4328 13.511 19.9098C13.034 20.3868 12.7661 21.0337 12.7661 21.7082M12.7661 21.7082H2.97656M24.5599 6.29187H20.9374M15.8496 6.29187H2.97656M15.8496 6.29187C15.8496 5.61733 16.1175 4.97043 16.5945 4.49346C17.0715 4.01649 17.7184 3.74854 18.3929 3.74854C18.7269 3.74854 19.0576 3.81432 19.3662 3.94213C19.6748 4.06995 19.9551 4.25729 20.1913 4.49346C20.4275 4.72963 20.6148 5.01001 20.7426 5.31858C20.8704 5.62715 20.9362 5.95787 20.9362 6.29187C20.9362 6.62586 20.8704 6.95659 20.7426 7.26516C20.6148 7.57373 20.4275 7.85411 20.1913 8.09028C19.9551 8.32645 19.6748 8.51379 19.3662 8.6416C19.0576 8.76942 18.7269 8.8352 18.3929 8.8352C17.7184 8.8352 17.0715 8.56724 16.5945 8.09028C16.1175 7.61331 15.8496 6.9664 15.8496 6.29187Z" stroke="white" stroke-width="1.5" stroke-miterlimit="10" stroke-linecap="round"/>
</svg>
