<svg width="41" height="32" viewBox="0 0 41 32" fill="none" xmlns="http://www.w3.org/2000/svg">
<path d="M34.8808 11.459C34.8808 14.7719 32.1958 17.4483 28.8829 17.4483C25.57 17.4483 22.8945 14.7709 22.8945 11.459H17.4414C17.4414 17.7727 22.5682 22.9014 28.8829 22.9014C35.1976 22.9014 40.333 17.7727 40.333 11.459H34.8808Z" fill="url(#paint0_linear_571_3028)"/>
<path d="M11.451 17.4483C8.13814 17.4483 5.4531 14.7709 5.4531 11.459H0C0 17.7727 5.13632 22.9014 11.4501 22.9014C17.7638 22.9014 22.8458 17.7327 22.8935 11.459H17.4404C17.3469 14.6917 14.7038 17.4483 11.4501 17.4483H11.451Z" fill="url(#paint1_linear_571_3028)"/>
<path d="M11.4511 0C5.13729 0 0.000976562 5.1449 0.000976562 11.4587H5.45312C5.45312 8.14577 8.13816 5.4531 11.4511 5.4531C14.7639 5.4531 17.4414 8.14673 17.4414 11.4587H22.8945C22.8945 5.1449 17.7648 0 11.4511 0Z" fill="url(#paint2_linear_571_3028)"/>
<path d="M28.8829 0C22.5691 0 17.4414 5.1449 17.4414 11.4587C17.4414 11.4558 17.4414 11.4615 17.4414 11.4587H22.8945C22.8945 8.14577 25.57 5.4531 28.8829 5.4531C32.1958 5.4531 34.8808 8.14673 34.8808 11.4587H40.333C40.333 5.1449 35.1967 0 28.8829 0Z" fill="#F2F2F2"/>
<path d="M11.472 26.5476C10.4472 26.5514 9.48159 26.2976 8.63715 25.8472C7.68202 25.3386 6.5103 25.4913 5.74505 26.2566L3.35962 28.642C5.41872 30.7011 8.25453 31.9816 11.3852 31.9997C13.6046 32.0121 15.6809 31.3709 17.4432 30.2603V20.46C17.4432 23.7795 14.7925 26.5361 11.473 26.5466L11.472 26.5476Z" fill="url(#paint3_linear_571_3028)"/>
<path d="M17.4424 11.459V30.2619C20.7104 28.2028 22.8955 24.5292 22.8955 20.4139V11.4599H17.4424V11.459Z" fill="#F2F2F2"/>
<defs>
<linearGradient id="paint0_linear_571_3028" x1="26.7236" y1="17.1793" x2="22.8525" y2="17.1754" gradientUnits="userSpaceOnUse">
<stop stop-color="#F2F2F2"/>
<stop offset="1"/>
</linearGradient>
<linearGradient id="paint1_linear_571_3028" x1="13.0731" y1="-26.7165" x2="17.8802" y2="-26.7165" gradientUnits="userSpaceOnUse">
<stop stop-color="#4F46E5"/>
<stop offset="1"/>
</linearGradient>
<linearGradient id="paint2_linear_571_3028" x1="12.9701" y1="8.26314" x2="17.5139" y2="10.1495" gradientUnits="userSpaceOnUse">
<stop stop-color="#4F46E5"/>
<stop offset="1"/>
</linearGradient>
<linearGradient id="paint3_linear_571_3028" x1="13.0731" y1="26.2298" x2="17.8802" y2="26.2298" gradientUnits="userSpaceOnUse">
<stop stop-color="#4F46E5"/>
<stop offset="1"/>
</linearGradient>
</defs>
</svg>
