<svg width="24" height="26" viewBox="0 0 24 26" fill="none" xmlns="http://www.w3.org/2000/svg">
<path d="M9.97168 1.7085C11.3037 1.46801 12.71 1.46809 14.042 1.7085V1.70947L14.1152 1.72314H14.1182C14.1433 1.72771 14.1664 1.74026 14.1846 1.7583C14.2027 1.7764 14.2151 1.79949 14.2197 1.82471L14.6494 4.146L14.7266 4.56396L15.125 4.7124C16.0351 5.05183 16.8766 5.53992 17.6348 6.16162L17.9629 6.43018L18.3613 6.28857L20.5791 5.49951C20.6035 5.49097 20.6303 5.48982 20.6553 5.49658C20.6801 5.5034 20.702 5.51796 20.7188 5.5376L20.7207 5.53955L20.7705 5.59717C21.6577 6.64084 22.3483 7.83664 22.8096 9.12646L22.832 9.18994L22.835 9.19971C22.8435 9.22356 22.8453 9.24939 22.8389 9.27393C22.8356 9.28632 22.83 9.29836 22.8232 9.30908L22.7988 9.3374L21.0107 10.8657L20.6895 11.1401L20.7578 11.5571C20.836 12.0339 20.877 12.5272 20.877 13.0142C20.8769 13.5006 20.8361 13.9911 20.7578 14.4712L20.6904 14.8872L21.0107 15.1616L22.7988 16.6899C22.8305 16.7182 22.8459 16.757 22.8447 16.7944L22.8379 16.8315L22.8125 16.9028C22.3484 18.1894 21.6656 19.3731 20.7754 20.4253L20.7266 20.4829L20.7236 20.4868C20.7073 20.5061 20.6846 20.5193 20.6602 20.5259C20.636 20.5324 20.6105 20.5321 20.5869 20.5239H20.5879L18.3672 19.7339L17.9678 19.5913L17.6406 19.8608C16.8834 20.4817 16.0412 20.9672 15.1289 21.3101L14.7314 21.4595L14.6553 21.8765L14.2256 24.1978C14.2209 24.2229 14.2085 24.2461 14.1904 24.2642C14.1723 24.2821 14.1491 24.2937 14.124 24.2983L14.1211 24.2993L14.0508 24.312C12.7028 24.5546 11.3216 24.5546 9.97363 24.312L9.9043 24.2993H9.90137C9.87621 24.2948 9.85311 24.2822 9.83496 24.2642C9.81685 24.2461 9.80451 24.2229 9.7998 24.1978L9.36816 21.8647L9.29004 21.4478L8.89258 21.2993L8.55762 21.1655C7.78404 20.8385 7.06149 20.3978 6.40234 19.856L6.07422 19.5864L5.6748 19.728L3.43848 20.5229C3.41474 20.5308 3.38939 20.5324 3.36523 20.5259C3.34021 20.5191 3.31758 20.5046 3.30078 20.4849L3.29883 20.4829L3.25 20.4253H3.24902C2.35999 19.3798 1.67653 18.1909 1.21191 16.9028H1.21289L1.1875 16.8315L1.18457 16.8228L1.17676 16.7856C1.17618 16.773 1.17836 16.76 1.18164 16.7476C1.18818 16.723 1.20143 16.7006 1.2207 16.6841L3.02539 15.1392L3.34766 14.8638L3.27832 14.4468C3.20079 13.9816 3.16212 13.4976 3.16211 13.0112C3.16211 12.5308 3.20052 12.0466 3.27832 11.5747L3.34668 11.1567L3.02539 10.8823L1.2168 9.33936H1.21777C1.17593 9.30332 1.16242 9.2467 1.17969 9.19873L1.18262 9.18994L1.20508 9.12646C1.66871 7.83616 2.35922 6.63889 3.24609 5.59326L3.29297 5.53955L3.29688 5.53564C3.31325 5.51637 3.33496 5.50221 3.35938 5.49561C3.38342 5.48912 3.40907 5.48951 3.43262 5.49756V5.49854L5.66895 6.29346L6.06836 6.43604L6.39648 6.1665C7.14398 5.55271 7.98634 5.06437 8.89062 4.72119L9.28516 4.57178L9.3623 4.15674L9.79395 1.82471C9.7986 1.7996 9.81106 1.77637 9.8291 1.7583C9.84717 1.74031 9.87044 1.72778 9.89551 1.72314H9.89844L9.97168 1.7085ZM12.0127 7.18311C8.9434 7.18311 6.45605 9.67143 6.45605 12.7407C6.45627 15.8098 8.94353 18.2974 12.0127 18.2974C15.0818 18.2973 17.5691 15.8098 17.5693 12.7407C17.5693 9.67145 15.082 7.18313 12.0127 7.18311ZM12.0127 10.4302H12.0146C12.3172 10.4293 12.617 10.4891 12.8965 10.605C13.176 10.7209 13.4304 10.8912 13.6436 11.106V11.1069C14.0824 11.5478 14.3223 12.1239 14.3223 12.7407C14.3222 13.3562 14.0836 13.9311 13.6465 14.3716C13.2056 14.8104 12.6295 15.0503 12.0127 15.0503C11.3959 15.0503 10.8188 14.8104 10.3779 14.3716C9.9411 13.9312 9.70323 13.356 9.70312 12.7407C9.70312 12.1246 9.94197 11.5486 10.3799 11.1079C10.8191 10.6686 11.3944 10.4302 12.0127 10.4302Z" stroke="white" stroke-width="1.5"/>
</svg>
